<mxfile host="app.diagrams.net" modified="2021-06-30T14:24:14.443Z" agent="5.0 (Windows NT 10.0; Win64; x64) AppleWebKit/537.36 (KHTML, like Gecko) Chrome/91.0.4472.114 Safari/537.36" etag="DhRX3KCWenK-VLvSDjSh" version="14.6.13" type="github">
  <diagram id="SNh0isrDpyEV201paJJA" name="Page-1">
    <mxGraphModel dx="2249" dy="1963" grid="1" gridSize="10" guides="1" tooltips="1" connect="1" arrows="1" fold="1" page="1" pageScale="1" pageWidth="827" pageHeight="1169" math="0" shadow="0">
      <root>
        <mxCell id="0" />
        <mxCell id="1" parent="0" />
        <mxCell id="33-F8erYBEQdZg53-ENI-7" value="" style="rounded=1;whiteSpace=wrap;html=1;" vertex="1" parent="1">
          <mxGeometry x="-280" y="520" width="170" height="180" as="geometry" />
        </mxCell>
        <mxCell id="33-F8erYBEQdZg53-ENI-5" value="" style="rounded=1;whiteSpace=wrap;html=1;fillColor=#fff2cc;strokeColor=#d6b656;" vertex="1" parent="1">
          <mxGeometry x="-50" y="-310" width="180" height="160" as="geometry" />
        </mxCell>
        <mxCell id="ZnnGFSXTL19ipxU4-vd9-39" value="" style="whiteSpace=wrap;html=1;shape=mxgraph.basic.cloud_rect;fillColor=#bac8d3;strokeColor=#23445d;" parent="1" vertex="1">
          <mxGeometry x="220" y="440" width="740" height="280" as="geometry" />
        </mxCell>
        <mxCell id="ZnnGFSXTL19ipxU4-vd9-53" value="" style="edgeStyle=orthogonalEdgeStyle;rounded=0;orthogonalLoop=1;jettySize=auto;html=1;" parent="1" source="ZnnGFSXTL19ipxU4-vd9-40" target="ZnnGFSXTL19ipxU4-vd9-41" edge="1">
          <mxGeometry relative="1" as="geometry" />
        </mxCell>
        <mxCell id="ZnnGFSXTL19ipxU4-vd9-51" style="edgeStyle=orthogonalEdgeStyle;rounded=0;orthogonalLoop=1;jettySize=auto;html=1;" parent="1" source="ZnnGFSXTL19ipxU4-vd9-41" target="ZnnGFSXTL19ipxU4-vd9-42" edge="1">
          <mxGeometry relative="1" as="geometry" />
        </mxCell>
        <mxCell id="33-F8erYBEQdZg53-ENI-13" value="" style="edgeStyle=orthogonalEdgeStyle;rounded=0;orthogonalLoop=1;jettySize=auto;html=1;" edge="1" parent="1" source="ZnnGFSXTL19ipxU4-vd9-41" target="ZnnGFSXTL19ipxU4-vd9-42">
          <mxGeometry relative="1" as="geometry" />
        </mxCell>
        <mxCell id="ZnnGFSXTL19ipxU4-vd9-41" value="&lt;span&gt;Xử lý ảnh, xử lý nhiễu (opencv)&amp;nbsp;&lt;/span&gt;" style="rounded=1;whiteSpace=wrap;html=1;absoluteArcSize=1;arcSize=14;strokeWidth=2;fillColor=#fad7ac;strokeColor=#b46504;" parent="1" vertex="1">
          <mxGeometry x="460" y="470" width="100" height="100" as="geometry" />
        </mxCell>
        <mxCell id="ZnnGFSXTL19ipxU4-vd9-54" value="" style="edgeStyle=orthogonalEdgeStyle;rounded=0;orthogonalLoop=1;jettySize=auto;html=1;" parent="1" source="ZnnGFSXTL19ipxU4-vd9-42" target="ZnnGFSXTL19ipxU4-vd9-43" edge="1">
          <mxGeometry relative="1" as="geometry" />
        </mxCell>
        <mxCell id="ZnnGFSXTL19ipxU4-vd9-42" value="&lt;span&gt;Hậu xử lý&lt;br&gt;&lt;/span&gt;" style="rounded=1;whiteSpace=wrap;html=1;absoluteArcSize=1;arcSize=14;strokeWidth=2;fillColor=#fad7ac;strokeColor=#b46504;" parent="1" vertex="1">
          <mxGeometry x="750" y="470" width="90" height="100" as="geometry" />
        </mxCell>
        <mxCell id="ZnnGFSXTL19ipxU4-vd9-43" value="Data" style="shape=parallelogram;html=1;strokeWidth=2;perimeter=parallelogramPerimeter;whiteSpace=wrap;rounded=1;arcSize=12;size=0.23;fillColor=#fad7ac;strokeColor=#b46504;" parent="1" vertex="1">
          <mxGeometry x="860" y="490" width="100" height="60" as="geometry" />
        </mxCell>
        <mxCell id="ZnnGFSXTL19ipxU4-vd9-45" value="" style="rounded=1;whiteSpace=wrap;html=1;fillColor=#e1d5e7;strokeColor=#9673a6;" parent="1" vertex="1">
          <mxGeometry x="-310" y="460" width="430" height="280" as="geometry" />
        </mxCell>
        <mxCell id="ZnnGFSXTL19ipxU4-vd9-48" value="OKD" style="text;html=1;strokeColor=none;fillColor=none;align=center;verticalAlign=middle;whiteSpace=wrap;rounded=0;" parent="1" vertex="1">
          <mxGeometry x="-290" y="470" width="40" height="20" as="geometry" />
        </mxCell>
        <mxCell id="ZnnGFSXTL19ipxU4-vd9-56" value="RabitMQ" style="rounded=1;whiteSpace=wrap;html=1;" parent="1" vertex="1">
          <mxGeometry x="-20" y="550" width="120" height="130" as="geometry" />
        </mxCell>
        <mxCell id="ZnnGFSXTL19ipxU4-vd9-66" value="" style="edgeStyle=orthogonalEdgeStyle;rounded=0;orthogonalLoop=1;jettySize=auto;html=1;" parent="1" source="ZnnGFSXTL19ipxU4-vd9-64" edge="1">
          <mxGeometry relative="1" as="geometry">
            <mxPoint x="359" y="460" as="targetPoint" />
          </mxGeometry>
        </mxCell>
        <mxCell id="ZnnGFSXTL19ipxU4-vd9-64" value="Apache AirFlow" style="rounded=1;whiteSpace=wrap;html=1;fillColor=#ffe6cc;strokeColor=#d79b00;" parent="1" vertex="1">
          <mxGeometry x="299" y="280" width="120" height="60" as="geometry" />
        </mxCell>
        <mxCell id="ZnnGFSXTL19ipxU4-vd9-67" value="" style="endArrow=classic;startArrow=classic;html=1;" parent="1" edge="1">
          <mxGeometry width="50" height="50" relative="1" as="geometry">
            <mxPoint x="120" y="590" as="sourcePoint" />
            <mxPoint x="220" y="590" as="targetPoint" />
          </mxGeometry>
        </mxCell>
        <mxCell id="ZnnGFSXTL19ipxU4-vd9-40" value="Detect tiêu chí (Yolo)&amp;nbsp;" style="rounded=1;whiteSpace=wrap;html=1;absoluteArcSize=1;arcSize=14;strokeWidth=2;fillColor=#fad7ac;strokeColor=#b46504;" parent="1" vertex="1">
          <mxGeometry x="308" y="470" width="102" height="100" as="geometry" />
        </mxCell>
        <mxCell id="ZnnGFSXTL19ipxU4-vd9-77" value="" style="endArrow=classic;startArrow=classic;html=1;entryX=0;entryY=0.5;entryDx=0;entryDy=0;" parent="1" target="ZnnGFSXTL19ipxU4-vd9-56" edge="1">
          <mxGeometry width="50" height="50" relative="1" as="geometry">
            <mxPoint x="-130" y="580" as="sourcePoint" />
            <mxPoint x="-70" y="560" as="targetPoint" />
            <Array as="points">
              <mxPoint x="-80" y="580" />
              <mxPoint x="-80" y="615" />
            </Array>
          </mxGeometry>
        </mxCell>
        <mxCell id="ZnnGFSXTL19ipxU4-vd9-79" value="" style="endArrow=classic;startArrow=classic;html=1;entryX=0;entryY=0.5;entryDx=0;entryDy=0;" parent="1" target="ZnnGFSXTL19ipxU4-vd9-56" edge="1">
          <mxGeometry width="50" height="50" relative="1" as="geometry">
            <mxPoint x="-130" y="650" as="sourcePoint" />
            <mxPoint x="-80" y="600" as="targetPoint" />
            <Array as="points">
              <mxPoint x="-80" y="650" />
              <mxPoint x="-80" y="615" />
            </Array>
          </mxGeometry>
        </mxCell>
        <mxCell id="ZnnGFSXTL19ipxU4-vd9-80" value="" style="whiteSpace=wrap;html=1;shape=mxgraph.basic.cloud_rect;fillColor=#bac8d3;strokeColor=#23445d;" parent="1" vertex="1">
          <mxGeometry x="210" y="-330" width="730" height="200" as="geometry" />
        </mxCell>
        <mxCell id="ZnnGFSXTL19ipxU4-vd9-88" value="" style="edgeStyle=orthogonalEdgeStyle;rounded=0;orthogonalLoop=1;jettySize=auto;html=1;" parent="1" source="ZnnGFSXTL19ipxU4-vd9-81" target="ZnnGFSXTL19ipxU4-vd9-82" edge="1">
          <mxGeometry relative="1" as="geometry" />
        </mxCell>
        <mxCell id="ZnnGFSXTL19ipxU4-vd9-81" value="Xác định tọa độ(cấu hình sẵn)" style="rounded=1;whiteSpace=wrap;html=1;absoluteArcSize=1;arcSize=14;strokeWidth=2;fillColor=#fad7ac;strokeColor=#b46504;" parent="1" vertex="1">
          <mxGeometry x="249" y="-280" width="102" height="100" as="geometry" />
        </mxCell>
        <mxCell id="ZnnGFSXTL19ipxU4-vd9-89" value="" style="edgeStyle=orthogonalEdgeStyle;rounded=0;orthogonalLoop=1;jettySize=auto;html=1;" parent="1" source="ZnnGFSXTL19ipxU4-vd9-82" target="ZnnGFSXTL19ipxU4-vd9-83" edge="1">
          <mxGeometry relative="1" as="geometry" />
        </mxCell>
        <mxCell id="33-F8erYBEQdZg53-ENI-2" value="" style="edgeStyle=orthogonalEdgeStyle;rounded=0;orthogonalLoop=1;jettySize=auto;html=1;" edge="1" parent="1" source="ZnnGFSXTL19ipxU4-vd9-82" target="33-F8erYBEQdZg53-ENI-1">
          <mxGeometry relative="1" as="geometry" />
        </mxCell>
        <mxCell id="ZnnGFSXTL19ipxU4-vd9-82" value="&lt;span&gt;Xử lý ảnh&lt;br&gt;(opencv)&lt;br&gt;&lt;/span&gt;" style="rounded=1;whiteSpace=wrap;html=1;absoluteArcSize=1;arcSize=14;strokeWidth=2;fillColor=#fad7ac;strokeColor=#b46504;" parent="1" vertex="1">
          <mxGeometry x="410" y="-280" width="100" height="100" as="geometry" />
        </mxCell>
        <mxCell id="ZnnGFSXTL19ipxU4-vd9-90" value="" style="edgeStyle=orthogonalEdgeStyle;rounded=0;orthogonalLoop=1;jettySize=auto;html=1;" parent="1" source="ZnnGFSXTL19ipxU4-vd9-83" target="ZnnGFSXTL19ipxU4-vd9-84" edge="1">
          <mxGeometry relative="1" as="geometry" />
        </mxCell>
        <mxCell id="ZnnGFSXTL19ipxU4-vd9-83" value="&lt;span&gt;Hậu xử lý&lt;/span&gt;" style="rounded=1;whiteSpace=wrap;html=1;absoluteArcSize=1;arcSize=14;strokeWidth=2;fillColor=#fad7ac;strokeColor=#b46504;" parent="1" vertex="1">
          <mxGeometry x="690" y="-280" width="90" height="100" as="geometry" />
        </mxCell>
        <mxCell id="ZnnGFSXTL19ipxU4-vd9-84" value="Data" style="shape=parallelogram;html=1;strokeWidth=2;perimeter=parallelogramPerimeter;whiteSpace=wrap;rounded=1;arcSize=12;size=0.23;fillColor=#fad7ac;strokeColor=#b46504;" parent="1" vertex="1">
          <mxGeometry x="827" y="-260" width="100" height="60" as="geometry" />
        </mxCell>
        <mxCell id="ZnnGFSXTL19ipxU4-vd9-85" value="OCR" style="text;html=1;strokeColor=none;fillColor=none;align=center;verticalAlign=middle;whiteSpace=wrap;rounded=0;" parent="1" vertex="1">
          <mxGeometry x="228" y="-310" width="80" height="20" as="geometry" />
        </mxCell>
        <mxCell id="ZnnGFSXTL19ipxU4-vd9-86" value="Job API (OCR, Compare dữ liệu)" style="rounded=1;whiteSpace=wrap;html=1;" parent="1" vertex="1">
          <mxGeometry x="-10" y="-260" width="120" height="60" as="geometry" />
        </mxCell>
        <mxCell id="ZnnGFSXTL19ipxU4-vd9-87" value="" style="endArrow=classic;startArrow=classic;html=1;exitX=1;exitY=0.5;exitDx=0;exitDy=0;exitPerimeter=0;" parent="1" source="33-F8erYBEQdZg53-ENI-5" edge="1">
          <mxGeometry width="50" height="50" relative="1" as="geometry">
            <mxPoint x="140" y="-230" as="sourcePoint" />
            <mxPoint x="210" y="-230" as="targetPoint" />
          </mxGeometry>
        </mxCell>
        <mxCell id="ZnnGFSXTL19ipxU4-vd9-91" value="OCR" style="text;html=1;strokeColor=none;fillColor=none;align=center;verticalAlign=middle;whiteSpace=wrap;rounded=0;" parent="1" vertex="1">
          <mxGeometry x="200" y="450" width="80" height="20" as="geometry" />
        </mxCell>
        <mxCell id="33-F8erYBEQdZg53-ENI-1" value="&lt;span&gt;Bóc tách&lt;br&gt;(Tesseract)&amp;nbsp;&lt;/span&gt;" style="rounded=1;whiteSpace=wrap;html=1;absoluteArcSize=1;arcSize=14;strokeWidth=2;fillColor=#fad7ac;strokeColor=#b46504;" vertex="1" parent="1">
          <mxGeometry x="550" y="-280" width="100" height="100" as="geometry" />
        </mxCell>
        <mxCell id="33-F8erYBEQdZg53-ENI-6" value="ECM" style="text;html=1;strokeColor=none;fillColor=none;align=center;verticalAlign=middle;whiteSpace=wrap;rounded=0;" vertex="1" parent="1">
          <mxGeometry x="-40" y="-300" width="40" height="20" as="geometry" />
        </mxCell>
        <mxCell id="33-F8erYBEQdZg53-ENI-8" value="" style="rounded=1;whiteSpace=wrap;html=1;" vertex="1" parent="1">
          <mxGeometry x="-270" y="500" width="150" height="230" as="geometry" />
        </mxCell>
        <mxCell id="ZnnGFSXTL19ipxU4-vd9-55" value="Job Send OCR" style="rounded=1;whiteSpace=wrap;html=1;" parent="1" vertex="1">
          <mxGeometry x="-255" y="530" width="120" height="60" as="geometry" />
        </mxCell>
        <mxCell id="ZnnGFSXTL19ipxU4-vd9-57" value="Job send OCR" style="rounded=1;whiteSpace=wrap;html=1;" parent="1" vertex="1">
          <mxGeometry x="-255" y="600" width="120" height="60" as="geometry" />
        </mxCell>
        <mxCell id="33-F8erYBEQdZg53-ENI-9" value="ECM" style="text;html=1;strokeColor=none;fillColor=none;align=center;verticalAlign=middle;whiteSpace=wrap;rounded=0;" vertex="1" parent="1">
          <mxGeometry x="-260" y="500" width="40" height="20" as="geometry" />
        </mxCell>
        <mxCell id="33-F8erYBEQdZg53-ENI-10" value="Job Compare dữ liệu" style="rounded=1;whiteSpace=wrap;html=1;" vertex="1" parent="1">
          <mxGeometry x="-255" y="670" width="120" height="60" as="geometry" />
        </mxCell>
        <mxCell id="33-F8erYBEQdZg53-ENI-12" value="" style="edgeStyle=orthogonalEdgeStyle;rounded=0;orthogonalLoop=1;jettySize=auto;html=1;" edge="1" parent="1" source="33-F8erYBEQdZg53-ENI-11" target="ZnnGFSXTL19ipxU4-vd9-40">
          <mxGeometry relative="1" as="geometry" />
        </mxCell>
        <mxCell id="33-F8erYBEQdZg53-ENI-11" value="Detect chứng từ (Yolo)" style="rounded=1;whiteSpace=wrap;html=1;absoluteArcSize=1;arcSize=14;strokeWidth=2;fillColor=#fad7ac;strokeColor=#b46504;" vertex="1" parent="1">
          <mxGeometry x="308" y="610" width="102" height="100" as="geometry" />
        </mxCell>
        <mxCell id="33-F8erYBEQdZg53-ENI-14" value="Bóc tách&lt;br&gt;(Tesseract)" style="rounded=1;whiteSpace=wrap;html=1;absoluteArcSize=1;arcSize=14;strokeWidth=2;fillColor=#fad7ac;strokeColor=#b46504;" vertex="1" parent="1">
          <mxGeometry x="600" y="470" width="100" height="100" as="geometry" />
        </mxCell>
      </root>
    </mxGraphModel>
  </diagram>
</mxfile>
